<svg width="213" height="60" viewBox="0 0 213 60" fill="none" xmlns="http://www.w3.org/2000/svg">
<g clip-path="url(#clip0_53_20)">
<path d="M99.3833 3.51683C99.3419 3.55554 98.0151 4.81102 96.2573 6.87769C93.4656 10.1611 89.5818 15.4927 88.0142 21.267C88.0142 18.4727 87.4743 15.7621 86.4435 13.2573C86.6091 13.6598 76.984 18.0733 76.1419 18.4418C72.8302 19.8954 69.4465 21.1757 66.0121 22.3011C62.5777 23.4265 59.263 24.2114 55.9329 25.3121C55.7136 25.3849 55.4943 25.4576 55.278 25.5304C53.2717 26.21 51.3942 26.9283 49.6394 27.6729C49.0366 27.9283 48.4491 28.1869 47.8754 28.4485C47.446 28.6435 47.0241 28.8401 46.61 29.0383C40.2275 32.0957 35.6872 35.4489 32.5688 38.3097C31.2987 39.4769 30.2634 40.5606 29.4351 41.5111C28.1174 43.0236 25.9317 43.4214 24.1846 42.4492C24.1554 42.4337 24.1309 42.4183 24.1094 42.4059C24.8426 41.2402 26.9318 38.2648 31.0625 34.76C31.064 34.76 31.0671 34.7569 31.0702 34.7538C32.1148 33.8683 33.2897 32.9487 34.6073 32.0168C37.8316 29.7318 41.9071 27.3679 46.9935 25.2285C47.5809 24.9808 48.1838 24.7362 48.8004 24.4947C50.7515 23.73 52.8406 23.0024 55.077 22.3228C55.1185 22.3088 55.1614 22.2965 55.2028 22.2841C56.0572 22.0271 56.93 21.7748 57.8273 21.5333C58.5068 21.349 59.1786 21.1602 59.8428 20.9667C61.6022 20.4558 63.3063 19.9124 64.9568 19.3412C72.8809 16.6089 79.5548 13.2913 84.8544 10.1611C84.1917 9.09917 83.4263 8.15485 82.5689 7.23684C82.19 6.83125 81.7636 6.47519 81.2973 6.17796L80.426 5.62376C82.4308 5.98291 87.0662 6.31884 91.8581 5.63614C94.2709 5.29247 96.8432 4.64383 99.3849 3.51683H99.3833Z" fill="#E84057"/>
<path d="M58.131 20.219C57.5389 18.7452 57.2368 17.0005 57.2368 15.0314C57.2368 13.0622 57.5972 11.251 58.3059 9.49083C59.0176 7.72139 60.0729 6.13927 61.4411 4.78625C62.8048 3.43943 64.4997 2.35424 66.48 1.55853C68.4541 0.769015 70.7273 0.368065 73.2367 0.368065C76.0391 0.368065 78.567 0.838678 80.7528 1.76442C82.5597 2.53227 84.2884 3.67784 85.9066 5.18101C83.5536 5.17327 81.6148 4.97512 80.5718 4.7878L76.3444 4.03234L76.6281 4.21347C75.6388 4.01996 74.5053 3.92243 73.2367 3.92243C71.2043 3.92243 69.3897 4.23824 67.8451 4.85901C66.3066 5.47824 65.0074 6.30491 63.9828 7.3158C62.9643 8.32204 62.1759 9.50477 61.6451 10.8268C61.1083 12.1644 60.8368 13.5777 60.8368 15.0314C60.8368 16.8209 61.162 18.3195 61.8031 19.4867C61.073 19.7158 60.3398 19.9372 59.6081 20.1508C59.1633 20.2809 58.7139 20.4078 58.2629 20.5332C58.2184 20.4295 58.1755 20.3242 58.1325 20.2174L58.131 20.219Z" fill="#3E3289"/>
<path d="M89.0802 41.6628C89.0802 44.0639 88.6707 46.3411 87.8654 48.4341C87.0509 50.5425 85.8545 52.4095 84.3098 53.9839C82.7637 55.5583 80.8494 56.8122 78.6207 57.7116C76.4027 58.6064 73.8626 59.06 71.0693 59.06C69.1474 59.06 67.3926 58.8851 65.8572 58.5383C64.3095 58.19 62.8661 57.6776 61.57 57.0166C60.2785 56.3586 59.0713 55.5459 57.9868 54.6047C56.9284 53.6882 55.8977 52.6278 54.9267 51.4559L54.1199 50.4837L55.1629 49.431C55.2918 49.301 55.4007 49.2019 55.5096 49.1229C55.798 48.9031 56.1661 48.7901 56.6002 48.7901C57.3395 48.7901 57.8902 49.2901 58.2875 49.7251C58.5636 50.0286 58.9562 50.4311 59.4548 50.9203C59.9349 51.394 60.5223 51.9064 61.2019 52.4436C61.843 52.9529 62.6452 53.4452 63.5855 53.9096C64.5242 54.3709 65.6225 54.7579 66.8481 55.0582C68.0629 55.357 69.4833 55.5072 71.0709 55.5072C73.3824 55.5072 75.4517 55.1341 77.2233 54.4003C78.9919 53.6681 80.5073 52.6727 81.7253 51.442C82.9386 50.2174 83.8773 48.7684 84.5139 47.1321C85.1566 45.4803 85.4817 43.6939 85.4817 41.8207C85.4817 40.299 85.2517 38.9846 84.7976 37.9134C84.3421 36.8359 83.7208 35.9009 82.9493 35.1346C82.1471 34.3358 81.1945 33.6423 80.1193 33.0695C78.9781 32.4626 77.7387 31.91 76.4364 31.4254C75.1019 30.93 73.7214 30.4656 72.3363 30.0461C70.8883 29.608 69.4526 29.1172 68.0675 28.5894C66.6502 28.0506 65.2958 27.4252 64.0426 26.7317C62.975 26.1403 62.0025 25.4375 61.1436 24.6356C61.188 24.6217 61.231 24.6108 61.2755 24.5984C62.6836 24.199 64.1331 23.7872 65.5627 23.3352C66.5597 23.9637 67.6687 24.5071 68.8759 24.9591C70.5509 25.5861 72.2796 26.1976 74.0144 26.7781C75.7722 27.3648 77.5347 27.9964 79.2542 28.6528C81.0703 29.3479 82.7069 30.2442 84.1212 31.3217C85.583 32.4363 86.7825 33.8296 87.6859 35.4628C88.6109 37.1362 89.0787 39.2215 89.0787 41.6628H89.0802Z" fill="#3E3289"/>
<path d="M58.4623 31.3372C58.3534 33.1608 58.0804 34.9705 57.6463 36.7276C57.611 36.8638 57.5773 37 57.542 37.1362C57.5205 37.2183 57.5006 37.2957 57.4791 37.3716C56.0848 42.5065 53.3238 47.1739 49.4937 50.8738C45.6528 54.583 40.8978 57.1636 35.7424 58.3355C33.6379 58.8154 31.4675 59.0584 29.2863 59.0584C28.3552 59.0584 27.4149 59.0136 26.4915 58.9238C25.2521 58.8061 24.0082 58.6064 22.7887 58.3262C16.4338 56.8695 10.6634 53.2346 6.5418 48.0873C4.48486 45.519 2.88195 42.6489 1.77755 39.5559C0.634802 36.3576 0.0549927 32.9936 0.0549927 29.56C0.0549927 21.6803 3.09516 14.2728 8.61715 8.69977C14.1376 3.12827 21.4773 0.0599976 29.2847 0.0599976C29.7403 0.0599976 30.1897 0.070834 30.6223 0.0909589C37.9803 0.425342 44.8859 3.52458 50.0704 8.81897C52.1719 10.9615 53.9174 13.3873 55.2734 16.0438C54.5233 16.2961 53.6429 16.6011 52.6412 16.9556C52.4004 17.0408 52.1519 17.0841 51.8988 17.0841C51.1319 17.0841 50.4232 16.694 50.006 16.0407L49.9876 16.0113C49.0949 14.6289 48.0564 13.3239 46.8999 12.1334C42.3028 7.40249 35.9019 4.68098 29.3415 4.6655H29.2847C23.3946 4.6655 17.7008 6.7879 13.2526 10.641C12.7724 11.0559 12.2985 11.4987 11.846 11.9569C7.18757 16.6584 4.62137 22.9095 4.62137 29.56C4.62137 36.2105 7.18757 42.4601 11.846 47.1615C14.7956 50.1369 18.4463 52.3197 22.4068 53.4761C22.8762 53.6123 23.3655 53.7408 23.8609 53.8523C25.6264 54.2517 27.4517 54.4529 29.2863 54.4529C32.4476 54.4529 35.52 53.8616 38.419 52.6974C41.5313 51.4481 44.3276 49.5858 46.7281 47.1615C48.7912 45.0825 50.4524 42.6892 51.6687 40.0497C51.7807 39.8098 51.8927 39.5574 52.0001 39.302C52.6182 37.836 53.0953 36.2987 53.422 34.7383L53.6965 33.4162L52.4111 33.0401C50.1885 32.3914 47.8739 32.0632 45.5332 32.0632C44.4518 32.0632 43.372 32.1344 42.3044 32.2738C43.7922 31.4084 45.3491 30.5864 46.9735 29.8077C47.3693 29.6188 47.7895 29.4222 48.2252 29.2241C48.785 28.9686 49.371 28.7117 49.9677 28.4578C50.0014 28.4438 50.0352 28.4299 50.0689 28.416C50.1379 28.4237 50.207 28.433 50.2744 28.4423C50.8911 28.5259 51.5015 28.6373 52.0921 28.7705C52.3881 28.837 52.652 28.9021 52.902 28.9702C54.2043 29.3169 55.4728 29.7876 56.68 30.3712C57.2843 30.6622 57.8825 30.9858 58.4654 31.3387L58.4623 31.3372Z" fill="#3E3289"/>
<path d="M108.261 26.3725C108.84 26.3725 109.354 26.323 109.8 26.2224C110.246 26.1217 110.668 25.9886 111.065 25.8214V23.0535H109.278C109.013 23.0535 108.808 22.9823 108.659 22.8398C108.51 22.6974 108.435 22.5178 108.435 22.3011V19.9713H114.862V27.6729C114.399 28.015 113.917 28.3092 113.417 28.5553C112.917 28.8014 112.383 29.0042 111.815 29.1621C111.249 29.3216 110.645 29.4377 110.004 29.5136C109.363 29.5894 108.674 29.6266 107.938 29.6266C106.614 29.6266 105.39 29.3913 104.264 28.9191C103.14 28.4469 102.164 27.7968 101.342 26.9654C100.518 26.1341 99.8742 25.1496 99.4064 24.0102C98.9385 22.8708 98.7054 21.6323 98.7054 20.2964C98.7054 18.9604 98.9293 17.6848 99.3757 16.5454C99.822 15.406 100.462 14.423 101.293 13.5963C102.124 12.7696 103.129 12.1272 104.309 11.6674C105.487 11.2076 106.804 10.9785 108.261 10.9785C109.015 10.9785 109.722 11.0405 110.383 11.1658C111.044 11.2912 111.654 11.4615 112.213 11.6798C112.771 11.8965 113.282 12.1551 113.745 12.4569C114.208 12.7573 114.623 13.0824 114.986 13.4338L113.77 15.2992C113.653 15.4741 113.515 15.6119 113.354 15.7125C113.193 15.8131 113.017 15.8627 112.826 15.8627C112.578 15.8627 112.322 15.7791 112.056 15.6119C111.725 15.4122 111.414 15.2388 111.119 15.0917C110.826 14.9462 110.526 14.827 110.219 14.7341C109.912 14.6428 109.59 14.5762 109.251 14.5344C108.912 14.4926 108.531 14.4725 108.11 14.4725C107.324 14.4725 106.616 14.6118 105.988 14.892C105.359 15.1722 104.824 15.567 104.381 16.0748C103.937 16.5841 103.597 17.1956 103.358 17.9092C103.118 18.6229 102.997 19.4186 102.997 20.2948C102.997 21.2639 103.129 22.1231 103.394 22.8739C103.66 23.6247 104.025 24.2594 104.493 24.778C104.961 25.2951 105.514 25.6898 106.155 25.9607C106.797 26.2317 107.498 26.3679 108.258 26.3679L108.261 26.3725Z" fill="#1D1D1B"/>
<path d="M121.612 22.6788V29.4284H117.419V11.1829H123.3C124.607 11.1829 125.722 11.3191 126.644 11.59C127.565 11.8609 128.319 12.2387 128.901 12.7232C129.484 13.2077 129.909 13.779 130.173 14.4385C130.438 15.0979 130.57 15.8162 130.57 16.5918C130.57 17.1847 130.492 17.7436 130.334 18.2699C130.176 18.7963 129.943 19.2824 129.633 19.7282C129.323 20.1756 128.943 20.5735 128.492 20.9249C128.041 21.2763 127.523 21.5642 126.935 21.7887C127.216 21.9311 127.48 22.106 127.723 22.315C127.967 22.524 128.181 22.7779 128.363 23.0782L132.21 29.4269H128.414C127.711 29.4269 127.207 29.159 126.9 28.625L123.896 23.3275C123.764 23.0937 123.61 22.9265 123.432 22.8259C123.254 22.7253 123.004 22.6757 122.682 22.6757H121.614L121.612 22.6788ZM121.612 19.7607H123.3C123.87 19.7607 124.357 19.688 124.758 19.5409C125.16 19.3954 125.489 19.1926 125.745 18.934C126.001 18.6755 126.186 18.3721 126.303 18.0269C126.418 17.6801 126.476 17.307 126.476 16.9061C126.476 16.1042 126.217 15.4788 125.7 15.0283C125.183 14.5778 124.383 14.3518 123.3 14.3518H121.612V19.7623V19.7607Z" fill="#1D1D1B"/>
<path d="M151.144 20.2994C151.144 21.6184 150.919 22.846 150.468 23.9808C150.017 25.1155 149.382 26.1032 148.563 26.9422C147.744 27.7813 146.757 28.4392 145.604 28.9145C144.45 29.3897 143.17 29.6281 141.763 29.6281C140.357 29.6281 139.074 29.3897 137.916 28.9145C136.758 28.4392 135.767 27.7813 134.945 26.9422C134.121 26.1032 133.485 25.1155 133.034 23.9808C132.583 22.846 132.357 21.6184 132.357 20.2994C132.357 18.9805 132.583 17.7529 133.034 16.6181C133.485 15.4834 134.121 14.4973 134.945 13.6629C135.769 12.8285 136.758 12.1721 137.916 11.6968C139.074 11.2216 140.357 10.9832 141.763 10.9832C143.17 10.9832 144.449 11.2231 145.604 11.703C146.757 12.1829 147.744 12.8409 148.563 13.6753C149.382 14.5097 150.017 15.4958 150.468 16.6305C150.919 17.7653 151.144 18.9898 151.144 20.2994ZM146.851 20.2994C146.851 19.3985 146.734 18.5857 146.503 17.8643C146.271 17.1429 145.938 16.5299 145.504 16.0299C145.07 15.5283 144.538 15.1444 143.909 14.8781C143.28 14.6103 142.565 14.4772 141.763 14.4772C140.961 14.4772 140.231 14.6103 139.597 14.8781C138.964 15.1459 138.431 15.5298 137.996 16.0299C137.562 16.5314 137.229 17.1429 136.997 17.8643C136.766 18.5873 136.651 19.3985 136.651 20.2994C136.651 21.2004 136.766 22.0255 136.997 22.7485C137.229 23.4714 137.562 24.0829 137.996 24.583C138.43 25.0845 138.964 25.4654 139.597 25.7285C140.231 25.9917 140.952 26.1233 141.763 26.1233C142.575 26.1233 143.282 25.9917 143.909 25.7285C144.538 25.4654 145.069 25.083 145.504 24.583C145.938 24.0814 146.271 23.4699 146.503 22.7485C146.734 22.0271 146.851 21.2097 146.851 20.2994Z" fill="#1D1D1B"/>
<path d="M151.79 11.1813H155.313C155.677 11.1813 155.981 11.2649 156.226 11.4321C156.47 11.5993 156.63 11.8207 156.703 12.0962L159.185 21.6138C159.268 21.9234 159.351 22.2531 159.433 22.603C159.516 22.9528 159.578 23.3213 159.619 23.7052C159.702 23.3135 159.792 22.9435 159.892 22.5968C159.992 22.25 160.087 21.9234 160.177 21.6138L163.106 12.0962C163.181 11.8625 163.339 11.6519 163.583 11.4631C163.827 11.2758 164.123 11.1813 164.469 11.1813H165.71C166.074 11.1813 166.374 11.2634 166.609 11.4259C166.844 11.5885 167.008 11.8129 167.1 12.0962L170.003 21.6138C170.094 21.9063 170.189 22.2175 170.289 22.5472C170.388 22.877 170.474 23.2299 170.55 23.6061C170.616 23.2392 170.685 22.8878 170.754 22.555C170.824 22.2206 170.896 21.9079 170.971 21.6153L173.453 12.0978C173.519 11.8563 173.677 11.6426 173.924 11.4584C174.173 11.2742 174.47 11.1829 174.817 11.1829H178.118L172.534 29.4284H168.738L165.337 18.1198C165.279 17.9448 165.219 17.7529 165.158 17.5439C165.097 17.3349 165.035 17.1135 164.978 16.8798C164.92 17.1135 164.86 17.3349 164.799 17.5439C164.738 17.7529 164.676 17.9448 164.62 18.1198L161.17 29.4284H157.373L151.79 11.1829V11.1813Z" fill="#1D1D1B"/>
<path d="M192.861 11.1813V14.5375H187.774V29.4269H183.58V14.5375H178.492V11.1813H192.861Z" fill="#1D1D1B"/>
<path d="M210.383 29.4284H206.165V21.7144H198.819V29.4284H194.601V11.1829H198.819V18.8102H206.165V11.1829H210.383V29.4284Z" fill="#1D1D1B"/>
<path d="M108.108 34.729C108.044 34.8389 107.975 34.921 107.903 34.9751C107.83 35.0293 107.735 35.0572 107.62 35.0572C107.498 35.0572 107.355 34.9953 107.192 34.8714C107.03 34.7476 106.824 34.6113 106.574 34.4612C106.324 34.311 106.025 34.1748 105.674 34.0509C105.323 33.9271 104.898 33.8652 104.399 33.8652C103.928 33.8652 103.513 33.9286 103.152 34.0571C102.79 34.1856 102.488 34.3575 102.247 34.5773C102.005 34.7956 101.822 35.0541 101.7 35.3498C101.577 35.6455 101.515 35.9644 101.515 36.308C101.515 36.7461 101.623 37.1084 101.836 37.3979C102.049 37.6858 102.331 37.932 102.683 38.1363C103.034 38.3406 103.431 38.5171 103.876 38.6673C104.321 38.8174 104.776 38.9723 105.243 39.1333C105.709 39.2943 106.165 39.4738 106.609 39.6751C107.054 39.8763 107.452 40.1287 107.803 40.4352C108.154 40.7417 108.435 41.1179 108.65 41.5622C108.863 42.008 108.97 42.5545 108.97 43.2047C108.97 43.8905 108.855 44.5345 108.623 45.1367C108.392 45.7389 108.054 46.2621 107.61 46.708C107.165 47.1538 106.619 47.5037 105.971 47.7591C105.324 48.0145 104.588 48.1415 103.764 48.1415C102.759 48.1415 101.842 47.9572 101.015 47.5888C100.187 47.2204 99.48 46.7219 98.8956 46.0949L99.503 45.0871C99.5613 45.0066 99.6318 44.9401 99.7147 44.8843C99.7975 44.8301 99.8895 44.8023 99.9908 44.8023C100.143 44.8023 100.316 44.8843 100.511 45.0484C100.706 45.2125 100.949 45.3936 101.242 45.5902C101.535 45.7868 101.89 45.968 102.305 46.1321C102.721 46.2962 103.229 46.3782 103.829 46.3782C104.327 46.3782 104.772 46.3085 105.163 46.1708C105.554 46.033 105.884 45.8364 106.155 45.5856C106.427 45.3333 106.634 45.0329 106.78 44.6831C106.924 44.3332 106.996 43.9431 106.996 43.5112C106.996 43.0375 106.889 42.6489 106.675 42.3455C106.462 42.0421 106.182 41.7897 105.835 41.5854C105.488 41.381 105.092 41.2077 104.648 41.0652C104.203 40.9228 103.747 40.7773 103.281 40.6271C102.815 40.477 102.359 40.3036 101.914 40.107C101.469 39.9104 101.074 39.655 100.727 39.3407C100.38 39.0264 100.1 38.6348 99.8865 38.1642C99.6733 37.6935 99.5659 37.1115 99.5659 36.4179C99.5659 35.8637 99.6733 35.3266 99.8865 34.8095C100.1 34.2909 100.408 33.8311 100.814 33.4302C101.219 33.0292 101.719 32.7072 102.316 32.4673C102.913 32.2258 103.597 32.1066 104.372 32.1066C105.24 32.1066 106.031 32.2459 106.748 32.523C107.464 32.8001 108.088 33.2011 108.623 33.7274L108.114 34.7352L108.108 34.729Z" fill="#1D1D1B"/>
<path d="M127.739 44.7233C127.854 44.7233 127.96 44.7713 128.053 44.8658L128.877 45.7745C128.24 46.5191 127.469 47.0996 126.561 47.5145C125.653 47.9309 124.559 48.1384 123.28 48.1384C122.158 48.1384 121.143 47.9433 120.232 47.5532C119.321 47.1631 118.543 46.6151 117.9 45.9107C117.256 45.2063 116.758 44.3611 116.403 43.3765C116.049 42.3919 115.873 41.3083 115.873 40.1256C115.873 38.9428 116.063 37.8592 116.442 36.8746C116.821 35.8901 117.354 35.0433 118.042 34.3358C118.729 33.6283 119.551 33.0788 120.51 32.6886C121.468 32.2985 122.525 32.1035 123.682 32.1035C124.838 32.1035 125.809 32.2831 126.637 32.6391C127.466 32.9967 128.2 33.4813 128.845 34.0943L128.162 35.068C128.112 35.1408 128.053 35.2012 127.989 35.2492C127.924 35.2971 127.829 35.3204 127.707 35.3204C127.613 35.3204 127.513 35.2863 127.409 35.2166C127.305 35.147 127.179 35.0618 127.035 34.9597C126.891 34.8575 126.72 34.7476 126.525 34.6315C126.331 34.5154 126.099 34.4055 125.831 34.3033C125.564 34.2011 125.252 34.116 124.898 34.0463C124.544 33.9766 124.136 33.9426 123.672 33.9426C122.841 33.9426 122.08 34.0866 121.39 34.3745C120.7 34.6624 120.105 35.0727 119.606 35.6052C119.108 36.1377 118.718 36.7879 118.44 37.5542C118.163 38.3205 118.023 39.1782 118.023 40.1271C118.023 41.0761 118.163 41.9771 118.44 42.7434C118.718 43.5096 119.098 44.1567 119.579 44.6862C120.059 45.2156 120.629 45.6181 121.287 45.8952C121.945 46.1723 122.654 46.3117 123.413 46.3117C123.876 46.3117 124.292 46.2838 124.66 46.2296C125.028 46.1754 125.37 46.0887 125.685 45.9726C125.999 45.8565 126.292 45.7079 126.564 45.5299C126.835 45.3518 127.108 45.1382 127.383 44.889C127.506 44.7791 127.625 44.7249 127.74 44.7249L127.739 44.7233Z" fill="#1D1D1B"/>
<path d="M149.388 47.9634H147.273V40.8268H138.899V47.9634H136.784V32.2769H138.899V39.271H147.273V32.2769H149.388V47.9634Z" fill="#1D1D1B"/>
<path d="M172.76 40.1256C172.76 41.3006 172.576 42.378 172.206 43.3595C171.838 44.341 171.317 45.1862 170.645 45.8937C169.973 46.6011 169.164 47.1507 168.221 47.5408C167.278 47.9309 166.235 48.126 165.092 48.126C163.949 48.126 162.908 47.9309 161.969 47.5408C161.029 47.1507 160.223 46.6011 159.55 45.8937C158.878 45.1862 158.357 44.341 157.989 43.3595C157.62 42.378 157.435 41.3006 157.435 40.1256C157.435 38.9506 157.619 37.8731 157.989 36.8917C158.357 35.9102 158.878 35.0634 159.55 34.3528C160.222 33.6423 161.029 33.088 161.969 32.6948C162.909 32.3001 163.949 32.1035 165.092 32.1035C166.235 32.1035 167.278 32.3001 168.221 32.6948C169.164 33.0896 169.973 33.6423 170.645 34.3528C171.317 35.0634 171.838 35.9117 172.206 36.8917C172.574 37.8731 172.76 38.9521 172.76 40.1256ZM170.602 40.1256C170.602 39.1627 170.471 38.2973 170.211 37.531C169.95 36.7647 169.582 36.1176 169.105 35.5882C168.628 35.0587 168.049 34.6516 167.37 34.3683C166.69 34.0835 165.931 33.941 165.092 33.941C164.253 33.941 163.504 34.0835 162.825 34.3683C162.145 34.6531 161.566 35.0603 161.084 35.5882C160.602 36.1176 160.233 36.7647 159.972 37.531C159.711 38.2973 159.581 39.1627 159.581 40.1256C159.581 41.0885 159.711 41.9523 159.972 42.7139C160.233 43.4771 160.602 44.1227 161.084 44.6521C161.564 45.1816 162.145 45.5856 162.825 45.8674C163.504 46.1491 164.261 46.2884 165.092 46.2884C165.923 46.2884 166.69 46.1476 167.37 45.8674C168.049 45.5872 168.628 45.1816 169.105 44.6521C169.582 44.1227 169.951 43.4771 170.211 42.7139C170.471 41.9507 170.602 41.0885 170.602 40.1256Z" fill="#1D1D1B"/>
<path d="M195.211 40.1256C195.211 41.3006 195.027 42.378 194.658 43.3595C194.29 44.341 193.768 45.1862 193.096 45.8937C192.424 46.6011 191.616 47.1507 190.673 47.5408C189.729 47.9309 188.686 48.126 187.543 48.126C186.401 48.126 185.359 47.9309 184.42 47.5408C183.48 47.1507 182.675 46.6011 182.002 45.8937C181.33 45.1862 180.808 44.341 180.44 43.3595C180.072 42.378 179.886 41.3006 179.886 40.1256C179.886 38.9506 180.07 37.8731 180.44 36.8917C180.808 35.9102 181.33 35.0634 182.002 34.3528C182.673 33.6423 183.48 33.088 184.42 32.6948C185.361 32.3001 186.401 32.1035 187.543 32.1035C188.686 32.1035 189.729 32.3001 190.673 32.6948C191.616 33.0896 192.424 33.6423 193.096 34.3528C193.768 35.0634 194.29 35.9117 194.658 36.8917C195.026 37.8731 195.211 38.9521 195.211 40.1256ZM193.053 40.1256C193.053 39.1627 192.923 38.2973 192.662 37.531C192.401 36.7647 192.033 36.1176 191.556 35.5882C191.079 35.0587 190.501 34.6516 189.821 34.3683C189.142 34.0835 188.383 33.941 187.543 33.941C186.704 33.941 185.956 34.0835 185.276 34.3683C184.597 34.6531 184.017 35.0603 183.535 35.5882C183.054 36.1176 182.684 36.7647 182.423 37.531C182.163 38.2973 182.032 39.1627 182.032 40.1256C182.032 41.0885 182.163 41.9523 182.423 42.7139C182.684 43.4771 183.054 44.1227 183.535 44.6521C184.016 45.1816 184.597 45.5856 185.276 45.8674C185.956 46.1491 186.712 46.2884 187.543 46.2884C188.375 46.2884 189.142 46.1476 189.821 45.8674C190.501 45.5872 191.079 45.1816 191.556 44.6521C192.033 44.1227 192.403 43.4771 192.662 42.7139C192.923 41.9507 193.053 41.0885 193.053 40.1256Z" fill="#1D1D1B"/>
<path d="M205.33 46.1785H212.055V47.9634H203.226V32.2769H205.33V46.1785Z" fill="#1D1D1B"/>
</g>
<defs>
<clipPath id="clip0_53_20">
<rect width="212" height="59" fill="white" transform="translate(0.0549927 0.0599976)"/>
</clipPath>
</defs>
</svg>
